<svg viewBox="0 0 512 512" xmlns="http://www.w3.org/2000/svg" version="1.1"><path d="m176 48h16v16h-16z" fill="#604912"/><path d="m192 48h16v16h-16z" fill="#604912"/><path d="m208 48h16v16h-16z" fill="#604912"/><path d="m224 48h16v16h-16z" fill="#604912"/><path d="m240 48h16v16h-16z" fill="#604912"/><path d="m160 64h16v16h-16z" fill="#604912"/><path d="m176 64h16v16h-16z" fill="#826218"/><path d="m192 64h16v16h-16z" fill="#826218"/><path d="m208 64h16v16h-16z" fill="#826218"/><path d="m224 64h16v16h-16z" fill="#826218"/><path d="m240 64h16v16h-16z" fill="#826218"/><path d="m256 64h16v16h-16z" fill="#604912"/><path d="m272 64h16v16h-16z" fill="#604912"/><path d="m288 64h16v16h-16z" fill="#604912"/><path d="m304 64h16v16h-16z" fill="#604912"/><path d="m320 64h16v16h-16z" fill="#604912"/><path d="m336 64h16v16h-16z" fill="#604912"/><path d="m144 80h16v16h-16z" fill="#604912"/><path d="m160 80h16v16h-16z" fill="#826218"/><path d="m176 80h16v16h-16z" fill="#d3a028"/><path d="m192 80h16v16h-16z" fill="#d3a028"/><path d="m208 80h16v16h-16z" fill="#d3a028"/><path d="m224 80h16v16h-16z" fill="#d3a028"/><path d="m240 80h16v16h-16z" fill="#d3a028"/><path d="m256 80h16v16h-16z" fill="#826218"/><path d="m272 80h16v16h-16z" fill="#826218"/><path d="m288 80h16v16h-16z" fill="#826218"/><path d="m304 80h16v16h-16z" fill="#826218"/><path d="m320 80h16v16h-16z" fill="#826218"/><path d="m336 80h16v16h-16z" fill="#826218"/><path d="m352 80h16v16h-16z" fill="#826218"/><path d="m368 80h16v16h-16z" fill="#604912"/><path d="m384 80h16v16h-16z" fill="#604912"/><path d="m400 80h16v16h-16z" fill="#604912"/><path d="m128 96h16v16h-16z" fill="#604912"/><path d="m144 96h16v16h-16z" fill="#826218"/><path d="m160 96h16v16h-16z" fill="#d3a028"/><path d="m176 96h16v16h-16z" fill="#d3a028"/><path d="m192 96h16v16h-16z" fill="#d3a028"/><path d="m208 96h16v16h-16z" fill="#d3a028"/><path d="m224 96h16v16h-16z" fill="#d3a028"/><path d="m240 96h16v16h-16z" fill="#d3a028"/><path d="m256 96h16v16h-16z" fill="#d3a028"/><path d="m272 96h16v16h-16z" fill="#d3a028"/><path d="m288 96h16v16h-16z" fill="#d3a028"/><path d="m304 96h16v16h-16z" fill="#d3a028"/><path d="m320 96h16v16h-16z" fill="#d3a028"/><path d="m336 96h16v16h-16z" fill="#d3a028"/><path d="m352 96h16v16h-16z" fill="#826218"/><path d="m368 96h16v16h-16z" fill="#826218"/><path d="m384 96h16v16h-16z" fill="#826218"/><path d="m400 96h16v16h-16z" fill="#826218"/><path d="m416 96h16v16h-16z" fill="#604912"/><path d="m432 96h16v16h-16z" fill="#604912"/><path d="m112 112h16v16h-16z" fill="#604912"/><path d="m128 112h16v16h-16z" fill="#494949"/><path d="m144 112h16v16h-16z" fill="#494949"/><path d="m160 112h16v16h-16z" fill="#494949"/><path d="m176 112h16v16h-16z" fill="#494949"/><path d="m192 112h16v16h-16z" fill="#494949"/><path d="m208 112h16v16h-16z" fill="#494949"/><path d="m224 112h16v16h-16z" fill="#494949"/><path d="m240 112h16v16h-16z" fill="#d3a028"/><path d="m256 112h16v16h-16z" fill="#d3a028"/><path d="m272 112h16v16h-16z" fill="#d3a028"/><path d="m288 112h16v16h-16z" fill="#d3a028"/><path d="m304 112h16v16h-16z" fill="#d3a028"/><path d="m320 112h16v16h-16z" fill="#d3a028"/><path d="m336 112h16v16h-16z" fill="#d3a028"/><path d="m352 112h16v16h-16z" fill="#d3a028"/><path d="m368 112h16v16h-16z" fill="#d3a028"/><path d="m384 112h16v16h-16z" fill="#d3a028"/><path d="m400 112h16v16h-16z" fill="#d3a028"/><path d="m416 112h16v16h-16z" fill="#826218"/><path d="m432 112h16v16h-16z" fill="#604912"/><path d="m448 112h16v16h-16z" fill="#604912"/><path d="m96 128h16v16h-16z" fill="#604912"/><path d="m112 128h16v16h-16z" fill="#826218"/><path d="m128 128h16v16h-16z" fill="#d3a028"/><path d="m144 128h16v16h-16z" fill="#494949"/><path d="m160 128h16v16h-16z" fill="#494949"/><path d="m176 128h16v16h-16z" fill="#494949"/><path d="m192 128h16v16h-16z" fill="#494949"/><path d="m208 128h16v16h-16z" fill="#494949"/><path d="m224 128h16v16h-16z" fill="#494949"/><path d="m240 128h16v16h-16z" fill="#494949"/><path d="m256 128h16v16h-16z" fill="#494949"/><path d="m272 128h16v16h-16z" fill="#494949"/><path d="m288 128h16v16h-16z" fill="#494949"/><path d="m304 128h16v16h-16z" fill="#d3a028"/><path d="m320 128h16v16h-16z" fill="#d3a028"/><path d="m336 128h16v16h-16z" fill="#d3a028"/><path d="m352 128h16v16h-16z" fill="#d3a028"/><path d="m368 128h16v16h-16z" fill="#d3a028"/><path d="m384 128h16v16h-16z" fill="#d3a028"/><path d="m400 128h16v16h-16z" fill="#d3a028"/><path d="m416 128h16v16h-16z" fill="#604912"/><path d="m432 128h16v16h-16z" fill="#826218"/><path d="m448 128h16v16h-16z" fill="#604912"/><path d="m80 144h16v16h-16z" fill="#604912"/><path d="m96 144h16v16h-16z" fill="#826218"/><path d="m112 144h16v16h-16z" fill="#d3a028"/><path d="m128 144h16v16h-16z" fill="#d3a028"/><path d="m144 144h16v16h-16z" fill="#d3a028"/><path d="m160 144h16v16h-16z" fill="#d3a028"/><path d="m176 144h16v16h-16z" fill="#d3a028"/><path d="m192 144h16v16h-16z" fill="#d3a028"/><path d="m208 144h16v16h-16z" fill="#d3a028"/><path d="m224 144h16v16h-16z" fill="#494949"/><path d="m240 144h16v16h-16z" fill="#494949"/><path d="m256 144h16v16h-16z" fill="#494949"/><path d="m272 144h16v16h-16z" fill="#494949"/><path d="m288 144h16v16h-16z" fill="#494949"/><path d="m304 144h16v16h-16z" fill="#494949"/><path d="m320 144h16v16h-16z" fill="#494949"/><path d="m336 144h16v16h-16z" fill="#494949"/><path d="m352 144h16v16h-16z" fill="#d3a028"/><path d="m368 144h16v16h-16z" fill="#d3a028"/><path d="m384 144h16v16h-16z" fill="#d3a028"/><path d="m400 144h16v16h-16z" fill="#604912"/><path d="m416 144h16v16h-16z" fill="#826218"/><path d="m432 144h16v16h-16z" fill="#c69625"/><path d="m448 144h16v16h-16z" fill="#604912"/><path d="m64 160h16v16h-16z" fill="#604912"/><path d="m80 160h16v16h-16z" fill="#826218"/><path d="m96 160h16v16h-16z" fill="#d3a028"/><path d="m112 160h16v16h-16z" fill="#d3a028"/><path d="m128 160h16v16h-16z" fill="#d3a028"/><path d="m144 160h16v16h-16z" fill="#d3a028"/><path d="m160 160h16v16h-16z" fill="#d3a028"/><path d="m176 160h16v16h-16z" fill="#d3a028"/><path d="m192 160h16v16h-16z" fill="#d3a028"/><path d="m208 160h16v16h-16z" fill="#d3a028"/><path d="m224 160h16v16h-16z" fill="#d3a028"/><path d="m240 160h16v16h-16z" fill="#d3a028"/><path d="m256 160h16v16h-16z" fill="#d3a028"/><path d="m272 160h16v16h-16z" fill="#d3a028"/><path d="m288 160h16v16h-16z" fill="#494949"/><path d="m304 160h16v16h-16z" fill="#494949"/><path d="m320 160h16v16h-16z" fill="#494949"/><path d="m336 160h16v16h-16z" fill="#494949"/><path d="m352 160h16v16h-16z" fill="#494949"/><path d="m368 160h16v16h-16z" fill="#494949"/><path d="m384 160h16v16h-16z" fill="#494949"/><path d="m400 160h16v16h-16z" fill="#826218"/><path d="m416 160h16v16h-16z" fill="#c69625"/><path d="m432 160h16v16h-16z" fill="#c69625"/><path d="m448 160h16v16h-16z" fill="#604912"/><path d="m48 176h16v16h-16z" fill="#604912"/><path d="m64 176h16v16h-16z" fill="#604912"/><path d="m80 176h16v16h-16z" fill="#604912"/><path d="m96 176h16v16h-16z" fill="#604912"/><path d="m112 176h16v16h-16z" fill="#604912"/><path d="m128 176h16v16h-16z" fill="#d3a028"/><path d="m144 176h16v16h-16z" fill="#d3a028"/><path d="m160 176h16v16h-16z" fill="#d3a028"/><path d="m176 176h16v16h-16z" fill="#d3a028"/><path d="m192 176h16v16h-16z" fill="#d3a028"/><path d="m208 176h16v16h-16z" fill="#d3a028"/><path d="m224 176h16v16h-16z" fill="#d3a028"/><path d="m240 176h16v16h-16z" fill="#d3a028"/><path d="m256 176h16v16h-16z" fill="#d3a028"/><path d="m272 176h16v16h-16z" fill="#d3a028"/><path d="m288 176h16v16h-16z" fill="#d3a028"/><path d="m304 176h16v16h-16z" fill="#d3a028"/><path d="m320 176h16v16h-16z" fill="#d3a028"/><path d="m336 176h16v16h-16z" fill="#d3a028"/><path d="m352 176h16v16h-16z" fill="#494949"/><path d="m368 176h16v16h-16z" fill="#494949"/><path d="m384 176h16v16h-16z" fill="#3f3f3f"/><path d="m400 176h16v16h-16z" fill="#3f3f3f"/><path d="m416 176h16v16h-16z" fill="#c69625"/><path d="m432 176h16v16h-16z" fill="#c69625"/><path d="m448 176h16v16h-16z" fill="#604912"/><path d="m48 192h16v16h-16z" fill="#604912"/><path d="m64 192h16v16h-16z" fill="#826218"/><path d="m80 192h16v16h-16z" fill="#826218"/><path d="m96 192h16v16h-16z" fill="#826218"/><path d="m112 192h16v16h-16z" fill="#826218"/><path d="m128 192h16v16h-16z" fill="#604912"/><path d="m144 192h16v16h-16z" fill="#604912"/><path d="m160 192h16v16h-16z" fill="#604912"/><path d="m176 192h16v16h-16z" fill="#604912"/><path d="m192 192h16v16h-16z" fill="#d3a028"/><path d="m208 192h16v16h-16z" fill="#d3a028"/><path d="m224 192h16v16h-16z" fill="#d3a028"/><path d="m240 192h16v16h-16z" fill="#d3a028"/><path d="m256 192h16v16h-16z" fill="#d3a028"/><path d="m272 192h16v16h-16z" fill="#d3a028"/><path d="m288 192h16v16h-16z" fill="#d3a028"/><path d="m304 192h16v16h-16z" fill="#d3a028"/><path d="m320 192h16v16h-16z" fill="#d3a028"/><path d="m336 192h16v16h-16z" fill="#d3a028"/><path d="m352 192h16v16h-16z" fill="#604912"/><path d="m368 192h16v16h-16z" fill="#826218"/><path d="m384 192h16v16h-16z" fill="#3f3f3f"/><path d="m400 192h16v16h-16z" fill="#3f3f3f"/><path d="m416 192h16v16h-16z" fill="#c69625"/><path d="m432 192h16v16h-16z" fill="#c69625"/><path d="m448 192h16v16h-16z" fill="#604912"/><path d="m48 208h16v16h-16z" fill="#604912"/><path d="m64 208h16v16h-16z" fill="#826218"/><path d="m80 208h16v16h-16z" fill="#b58922"/><path d="m96 208h16v16h-16z" fill="#b58922"/><path d="m112 208h16v16h-16z" fill="#b58922"/><path d="m128 208h16v16h-16z" fill="#826218"/><path d="m144 208h16v16h-16z" fill="#826218"/><path d="m160 208h16v16h-16z" fill="#826218"/><path d="m176 208h16v16h-16z" fill="#826218"/><path d="m192 208h16v16h-16z" fill="#604912"/><path d="m208 208h16v16h-16z" fill="#604912"/><path d="m224 208h16v16h-16z" fill="#604912"/><path d="m240 208h16v16h-16z" fill="#604912"/><path d="m256 208h16v16h-16z" fill="#d3a028"/><path d="m272 208h16v16h-16z" fill="#d3a028"/><path d="m288 208h16v16h-16z" fill="#d3a028"/><path d="m304 208h16v16h-16z" fill="#d3a028"/><path d="m320 208h16v16h-16z" fill="#d3a028"/><path d="m336 208h16v16h-16z" fill="#604912"/><path d="m352 208h16v16h-16z" fill="#826218"/><path d="m368 208h16v16h-16z" fill="#c69625"/><path d="m384 208h16v16h-16z" fill="#3f3f3f"/><path d="m400 208h16v16h-16z" fill="#3f3f3f"/><path d="m416 208h16v16h-16z" fill="#c69625"/><path d="m432 208h16v16h-16z" fill="#c69625"/><path d="m448 208h16v16h-16z" fill="#604912"/><path d="m48 224h16v16h-16z" fill="#604912"/><path d="m64 224h16v16h-16z" fill="#826218"/><path d="m80 224h16v16h-16z" fill="#b58922"/><path d="m96 224h16v16h-16z" fill="#b58922"/><path d="m112 224h16v16h-16z" fill="#b58922"/><path d="m128 224h16v16h-16z" fill="#b58922"/><path d="m144 224h16v16h-16z" fill="#b58922"/><path d="m160 224h16v16h-16z" fill="#b58922"/><path d="m176 224h16v16h-16z" fill="#b58922"/><path d="m192 224h16v16h-16z" fill="#826218"/><path d="m208 224h16v16h-16z" fill="#826218"/><path d="m224 224h16v16h-16z" fill="#826218"/><path d="m240 224h16v16h-16z" fill="#826218"/><path d="m256 224h16v16h-16z" fill="#604912"/><path d="m272 224h16v16h-16z" fill="#604912"/><path d="m288 224h16v16h-16z" fill="#604912"/><path d="m304 224h16v16h-16z" fill="#604912"/><path d="m320 224h16v16h-16z" fill="#604912"/><path d="m336 224h16v16h-16z" fill="#826218"/><path d="m352 224h16v16h-16z" fill="#c69625"/><path d="m368 224h16v16h-16z" fill="#c69625"/><path d="m384 224h16v16h-16z" fill="#3f3f3f"/><path d="m400 224h16v16h-16z" fill="#3f3f3f"/><path d="m416 224h16v16h-16z" fill="#c69625"/><path d="m432 224h16v16h-16z" fill="#c69625"/><path d="m448 224h16v16h-16z" fill="#604912"/><path d="m48 240h16v16h-16z" fill="#604912"/><path d="m64 240h16v16h-16z" fill="#826218"/><path d="m80 240h16v16h-16z" fill="#b58922"/><path d="m96 240h16v16h-16z" fill="#b58922"/><path d="m112 240h16v16h-16z" fill="#b58922"/><path d="m128 240h16v16h-16z" fill="#b58922"/><path d="m144 240h16v16h-16z" fill="#b58922"/><path d="m160 240h16v16h-16z" fill="#b58922"/><path d="m176 240h16v16h-16z" fill="#b58922"/><path d="m192 240h16v16h-16z" fill="#b58922"/><path d="m208 240h16v16h-16z" fill="#b58922"/><path d="m224 240h16v16h-16z" fill="#b58922"/><path d="m240 240h16v16h-16z" fill="#b58922"/><path d="m256 240h16v16h-16z" fill="#826218"/><path d="m272 240h16v16h-16z" fill="#826218"/><path d="m288 240h16v16h-16z" fill="#826218"/><path d="m304 240h16v16h-16z" fill="#826218"/><path d="m320 240h16v16h-16z" fill="#604912"/><path d="m336 240h16v16h-16z" fill="#c69625"/><path d="m352 240h16v16h-16z" fill="#c69625"/><path d="m368 240h16v16h-16z" fill="#c69625"/><path d="m384 240h16v16h-16z" fill="#3f3f3f"/><path d="m400 240h16v16h-16z" fill="#3f3f3f"/><path d="m416 240h16v16h-16z" fill="#c69625"/><path d="m432 240h16v16h-16z" fill="#c69625"/><path d="m448 240h16v16h-16z" fill="#604912"/><path d="m48 256h16v16h-16z" fill="#604912"/><path d="m64 256h16v16h-16z" fill="#826218"/><path d="m80 256h16v16h-16z" fill="#b58922"/><path d="m96 256h16v16h-16z" fill="#b58922"/><path d="m112 256h16v16h-16z" fill="#b58922"/><path d="m128 256h16v16h-16z" fill="#b58922"/><path d="m144 256h16v16h-16z" fill="#b58922"/><path d="m160 256h16v16h-16z" fill="#b58922"/><path d="m176 256h16v16h-16z" fill="#b58922"/><path d="m192 256h16v16h-16z" fill="#b58922"/><path d="m208 256h16v16h-16z" fill="#b58922"/><path d="m224 256h16v16h-16z" fill="#b58922"/><path d="m240 256h16v16h-16z" fill="#b58922"/><path d="m256 256h16v16h-16z" fill="#b58922"/><path d="m272 256h16v16h-16z" fill="#b58922"/><path d="m288 256h16v16h-16z" fill="#b58922"/><path d="m304 256h16v16h-16z" fill="#826218"/><path d="m320 256h16v16h-16z" fill="#604912"/><path d="m336 256h16v16h-16z" fill="#c69625"/><path d="m352 256h16v16h-16z" fill="#c69625"/><path d="m368 256h16v16h-16z" fill="#c69625"/><path d="m384 256h16v16h-16z" fill="#3f3f3f"/><path d="m400 256h16v16h-16z" fill="#3f3f3f"/><path d="m416 256h16v16h-16z" fill="#c69625"/><path d="m432 256h16v16h-16z" fill="#c69625"/><path d="m448 256h16v16h-16z" fill="#604912"/><path d="m48 272h16v16h-16z" fill="#604912"/><path d="m64 272h16v16h-16z" fill="#826218"/><path d="m80 272h16v16h-16z" fill="#b58922"/><path d="m96 272h16v16h-16z" fill="#b58922"/><path d="m112 272h16v16h-16z" fill="#b58922"/><path d="m128 272h16v16h-16z" fill="#b58922"/><path d="m144 272h16v16h-16z" fill="#b58922"/><path d="m160 272h16v16h-16z" fill="#b58922"/><path d="m176 272h16v16h-16z" fill="#b58922"/><path d="m192 272h16v16h-16z" fill="#b58922"/><path d="m208 272h16v16h-16z" fill="#b58922"/><path d="m224 272h16v16h-16z" fill="#b58922"/><path d="m240 272h16v16h-16z" fill="#b58922"/><path d="m256 272h16v16h-16z" fill="#b58922"/><path d="m272 272h16v16h-16z" fill="#b58922"/><path d="m288 272h16v16h-16z" fill="#b58922"/><path d="m304 272h16v16h-16z" fill="#826218"/><path d="m320 272h16v16h-16z" fill="#604912"/><path d="m336 272h16v16h-16z" fill="#c69625"/><path d="m352 272h16v16h-16z" fill="#c69625"/><path d="m368 272h16v16h-16z" fill="#c69625"/><path d="m384 272h16v16h-16z" fill="#3f3f3f"/><path d="m400 272h16v16h-16z" fill="#3f3f3f"/><path d="m416 272h16v16h-16z" fill="#c69625"/><path d="m432 272h16v16h-16z" fill="#c69625"/><path d="m448 272h16v16h-16z" fill="#604912"/><path d="m48 288h16v16h-16z" fill="#604912"/><path d="m64 288h16v16h-16z" fill="#826218"/><path d="m80 288h16v16h-16z" fill="#b58922"/><path d="m96 288h16v16h-16z" fill="#b58922"/><path d="m112 288h16v16h-16z" fill="#b58922"/><path d="m128 288h16v16h-16z" fill="#b58922"/><path d="m144 288h16v16h-16z" fill="#b58922"/><path d="m160 288h16v16h-16z" fill="#b58922"/><path d="m176 288h16v16h-16z" fill="#b58922"/><path d="m192 288h16v16h-16z" fill="#b58922"/><path d="m208 288h16v16h-16z" fill="#b58922"/><path d="m224 288h16v16h-16z" fill="#b58922"/><path d="m240 288h16v16h-16z" fill="#b58922"/><path d="m256 288h16v16h-16z" fill="#b58922"/><path d="m272 288h16v16h-16z" fill="#b58922"/><path d="m288 288h16v16h-16z" fill="#b58922"/><path d="m304 288h16v16h-16z" fill="#826218"/><path d="m320 288h16v16h-16z" fill="#604912"/><path d="m336 288h16v16h-16z" fill="#c69625"/><path d="m352 288h16v16h-16z" fill="#c69625"/><path d="m368 288h16v16h-16z" fill="#c69625"/><path d="m384 288h16v16h-16z" fill="#3f3f3f"/><path d="m400 288h16v16h-16z" fill="#3f3f3f"/><path d="m416 288h16v16h-16z" fill="#c69625"/><path d="m432 288h16v16h-16z" fill="#c69625"/><path d="m448 288h16v16h-16z" fill="#604912"/><path d="m48 304h16v16h-16z" fill="#604912"/><path d="m64 304h16v16h-16z" fill="#826218"/><path d="m80 304h16v16h-16z" fill="#b58922"/><path d="m96 304h16v16h-16z" fill="#b58922"/><path d="m112 304h16v16h-16z" fill="#b58922"/><path d="m128 304h16v16h-16z" fill="#b58922"/><path d="m144 304h16v16h-16z" fill="#b58922"/><path d="m160 304h16v16h-16z" fill="#b58922"/><path d="m176 304h16v16h-16z" fill="#b58922"/><path d="m192 304h16v16h-16z" fill="#b58922"/><path d="m208 304h16v16h-16z" fill="#b58922"/><path d="m224 304h16v16h-16z" fill="#b58922"/><path d="m240 304h16v16h-16z" fill="#b58922"/><path d="m256 304h16v16h-16z" fill="#b58922"/><path d="m272 304h16v16h-16z" fill="#b58922"/><path d="m288 304h16v16h-16z" fill="#b58922"/><path d="m304 304h16v16h-16z" fill="#826218"/><path d="m320 304h16v16h-16z" fill="#604912"/><path d="m336 304h16v16h-16z" fill="#c69625"/><path d="m352 304h16v16h-16z" fill="#c69625"/><path d="m368 304h16v16h-16z" fill="#c69625"/><path d="m384 304h16v16h-16z" fill="#3f3f3f"/><path d="m400 304h16v16h-16z" fill="#3f3f3f"/><path d="m416 304h16v16h-16z" fill="#c69625"/><path d="m432 304h16v16h-16z" fill="#c69625"/><path d="m448 304h16v16h-16z" fill="#604912"/><path d="m48 320h16v16h-16z" fill="#604912"/><path d="m64 320h16v16h-16z" fill="#826218"/><path d="m80 320h16v16h-16z" fill="#b58922"/><path d="m96 320h16v16h-16z" fill="#b58922"/><path d="m112 320h16v16h-16z" fill="#b58922"/><path d="m128 320h16v16h-16z" fill="#b58922"/><path d="m144 320h16v16h-16z" fill="#b58922"/><path d="m160 320h16v16h-16z" fill="#b58922"/><path d="m176 320h16v16h-16z" fill="#b58922"/><path d="m192 320h16v16h-16z" fill="#b58922"/><path d="m208 320h16v16h-16z" fill="#b58922"/><path d="m224 320h16v16h-16z" fill="#b58922"/><path d="m240 320h16v16h-16z" fill="#b58922"/><path d="m256 320h16v16h-16z" fill="#b58922"/><path d="m272 320h16v16h-16z" fill="#b58922"/><path d="m288 320h16v16h-16z" fill="#b58922"/><path d="m304 320h16v16h-16z" fill="#826218"/><path d="m320 320h16v16h-16z" fill="#604912"/><path d="m336 320h16v16h-16z" fill="#c69625"/><path d="m352 320h16v16h-16z" fill="#c69625"/><path d="m368 320h16v16h-16z" fill="#c69625"/><path d="m384 320h16v16h-16z" fill="#3f3f3f"/><path d="m400 320h16v16h-16z" fill="#3f3f3f"/><path d="m416 320h16v16h-16z" fill="#c69625"/><path d="m432 320h16v16h-16z" fill="#c69625"/><path d="m448 320h16v16h-16z" fill="#604912"/><path d="m48 336h16v16h-16z" fill="#604912"/><path d="m64 336h16v16h-16z" fill="#826218"/><path d="m80 336h16v16h-16z" fill="#b58922"/><path d="m96 336h16v16h-16z" fill="#b58922"/><path d="m112 336h16v16h-16z" fill="#333333"/><path d="m128 336h16v16h-16z" fill="#b58922"/><path d="m144 336h16v16h-16z" fill="#b58922"/><path d="m160 336h16v16h-16z" fill="#b58922"/><path d="m176 336h16v16h-16z" fill="#b58922"/><path d="m192 336h16v16h-16z" fill="#b58922"/><path d="m208 336h16v16h-16z" fill="#b58922"/><path d="m224 336h16v16h-16z" fill="#b58922"/><path d="m240 336h16v16h-16z" fill="#b58922"/><path d="m256 336h16v16h-16z" fill="#b58922"/><path d="m272 336h16v16h-16z" fill="#b58922"/><path d="m288 336h16v16h-16z" fill="#b58922"/><path d="m304 336h16v16h-16z" fill="#826218"/><path d="m320 336h16v16h-16z" fill="#604912"/><path d="m336 336h16v16h-16z" fill="#c69625"/><path d="m352 336h16v16h-16z" fill="#c69625"/><path d="m368 336h16v16h-16z" fill="#c69625"/><path d="m384 336h16v16h-16z" fill="#3f3f3f"/><path d="m400 336h16v16h-16z" fill="#3f3f3f"/><path d="m416 336h16v16h-16z" fill="#c69625"/><path d="m432 336h16v16h-16z" fill="#c69625"/><path d="m448 336h16v16h-16z" fill="#604912"/><path d="m48 352h16v16h-16z" fill="#604912"/><path d="m64 352h16v16h-16z" fill="#826218"/><path d="m80 352h16v16h-16z" fill="#b58922"/><path d="m96 352h16v16h-16z" fill="#b58922"/><path d="m112 352h16v16h-16z" fill="#333333"/><path d="m128 352h16v16h-16z" fill="#b58922"/><path d="m144 352h16v16h-16z" fill="#b58922"/><path d="m160 352h16v16h-16z" fill="#b58922"/><path d="m176 352h16v16h-16z" fill="#b58922"/><path d="m192 352h16v16h-16z" fill="#b58922"/><path d="m208 352h16v16h-16z" fill="#b58922"/><path d="m224 352h16v16h-16z" fill="#b58922"/><path d="m240 352h16v16h-16z" fill="#b58922"/><path d="m256 352h16v16h-16z" fill="#b58922"/><path d="m272 352h16v16h-16z" fill="#b58922"/><path d="m288 352h16v16h-16z" fill="#b58922"/><path d="m304 352h16v16h-16z" fill="#826218"/><path d="m320 352h16v16h-16z" fill="#604912"/><path d="m336 352h16v16h-16z" fill="#c69625"/><path d="m352 352h16v16h-16z" fill="#c69625"/><path d="m368 352h16v16h-16z" fill="#c69625"/><path d="m384 352h16v16h-16z" fill="#3f3f3f"/><path d="m400 352h16v16h-16z" fill="#3f3f3f"/><path d="m416 352h16v16h-16z" fill="#c69625"/><path d="m432 352h16v16h-16z" fill="#826218"/><path d="m448 352h16v16h-16z" fill="#604912"/><path d="m48 368h16v16h-16z" fill="#604912"/><path d="m64 368h16v16h-16z" fill="#826218"/><path d="m80 368h16v16h-16z" fill="#b58922"/><path d="m96 368h16v16h-16z" fill="#b58922"/><path d="m112 368h16v16h-16z" fill="#b58922"/><path d="m128 368h16v16h-16z" fill="#333333"/><path d="m144 368h16v16h-16z" fill="#333333"/><path d="m160 368h16v16h-16z" fill="#b58922"/><path d="m176 368h16v16h-16z" fill="#b58922"/><path d="m192 368h16v16h-16z" fill="#b58922"/><path d="m208 368h16v16h-16z" fill="#b58922"/><path d="m224 368h16v16h-16z" fill="#333333"/><path d="m240 368h16v16h-16z" fill="#333333"/><path d="m256 368h16v16h-16z" fill="#333333"/><path d="m272 368h16v16h-16z" fill="#b58922"/><path d="m288 368h16v16h-16z" fill="#b58922"/><path d="m304 368h16v16h-16z" fill="#826218"/><path d="m320 368h16v16h-16z" fill="#604912"/><path d="m336 368h16v16h-16z" fill="#c69625"/><path d="m352 368h16v16h-16z" fill="#c69625"/><path d="m368 368h16v16h-16z" fill="#c69625"/><path d="m384 368h16v16h-16z" fill="#3f3f3f"/><path d="m400 368h16v16h-16z" fill="#3f3f3f"/><path d="m416 368h16v16h-16z" fill="#826218"/><path d="m432 368h16v16h-16z" fill="#604912"/><path d="m48 384h16v16h-16z" fill="#604912"/><path d="m64 384h16v16h-16z" fill="#826218"/><path d="m80 384h16v16h-16z" fill="#b58922"/><path d="m96 384h16v16h-16z" fill="#b58922"/><path d="m112 384h16v16h-16z" fill="#b58922"/><path d="m128 384h16v16h-16z" fill="#b58922"/><path d="m144 384h16v16h-16z" fill="#b58922"/><path d="m160 384h16v16h-16z" fill="#333333"/><path d="m176 384h16v16h-16z" fill="#333333"/><path d="m192 384h16v16h-16z" fill="#b58922"/><path d="m208 384h16v16h-16z" fill="#b58922"/><path d="m224 384h16v16h-16z" fill="#b58922"/><path d="m240 384h16v16h-16z" fill="#b58922"/><path d="m256 384h16v16h-16z" fill="#333333"/><path d="m272 384h16v16h-16z" fill="#b58922"/><path d="m288 384h16v16h-16z" fill="#b58922"/><path d="m304 384h16v16h-16z" fill="#826218"/><path d="m320 384h16v16h-16z" fill="#604912"/><path d="m336 384h16v16h-16z" fill="#c69625"/><path d="m352 384h16v16h-16z" fill="#c69625"/><path d="m368 384h16v16h-16z" fill="#c69625"/><path d="m384 384h16v16h-16z" fill="#3f3f3f"/><path d="m400 384h16v16h-16z" fill="#3f3f3f"/><path d="m416 384h16v16h-16z" fill="#604912"/><path d="m48 400h16v16h-16z" fill="#604912"/><path d="m64 400h16v16h-16z" fill="#826218"/><path d="m80 400h16v16h-16z" fill="#826218"/><path d="m96 400h16v16h-16z" fill="#826218"/><path d="m112 400h16v16h-16z" fill="#826218"/><path d="m128 400h16v16h-16z" fill="#b58922"/><path d="m144 400h16v16h-16z" fill="#b58922"/><path d="m160 400h16v16h-16z" fill="#b58922"/><path d="m176 400h16v16h-16z" fill="#b58922"/><path d="m192 400h16v16h-16z" fill="#333333"/><path d="m208 400h16v16h-16z" fill="#333333"/><path d="m224 400h16v16h-16z" fill="#333333"/><path d="m240 400h16v16h-16z" fill="#b58922"/><path d="m256 400h16v16h-16z" fill="#333333"/><path d="m272 400h16v16h-16z" fill="#b58922"/><path d="m288 400h16v16h-16z" fill="#b58922"/><path d="m304 400h16v16h-16z" fill="#826218"/><path d="m320 400h16v16h-16z" fill="#604912"/><path d="m336 400h16v16h-16z" fill="#c69625"/><path d="m352 400h16v16h-16z" fill="#c69625"/><path d="m368 400h16v16h-16z" fill="#c69625"/><path d="m384 400h16v16h-16z" fill="#3f3f3f"/><path d="m400 400h16v16h-16z" fill="#604912"/><path d="m48 416h16v16h-16z" fill="#604912"/><path d="m64 416h16v16h-16z" fill="#604912"/><path d="m80 416h16v16h-16z" fill="#604912"/><path d="m96 416h16v16h-16z" fill="#604912"/><path d="m112 416h16v16h-16z" fill="#604912"/><path d="m128 416h16v16h-16z" fill="#826218"/><path d="m144 416h16v16h-16z" fill="#826218"/><path d="m160 416h16v16h-16z" fill="#826218"/><path d="m176 416h16v16h-16z" fill="#826218"/><path d="m192 416h16v16h-16z" fill="#b58922"/><path d="m208 416h16v16h-16z" fill="#b58922"/><path d="m224 416h16v16h-16z" fill="#b58922"/><path d="m240 416h16v16h-16z" fill="#b58922"/><path d="m256 416h16v16h-16z" fill="#b58922"/><path d="m272 416h16v16h-16z" fill="#b58922"/><path d="m288 416h16v16h-16z" fill="#b58922"/><path d="m304 416h16v16h-16z" fill="#826218"/><path d="m320 416h16v16h-16z" fill="#604912"/><path d="m336 416h16v16h-16z" fill="#c69625"/><path d="m352 416h16v16h-16z" fill="#c69625"/><path d="m368 416h16v16h-16z" fill="#826218"/><path d="m384 416h16v16h-16z" fill="#604912"/><path d="m128 432h16v16h-16z" fill="#604912"/><path d="m144 432h16v16h-16z" fill="#604912"/><path d="m160 432h16v16h-16z" fill="#604912"/><path d="m176 432h16v16h-16z" fill="#604912"/><path d="m192 432h16v16h-16z" fill="#826218"/><path d="m208 432h16v16h-16z" fill="#826218"/><path d="m224 432h16v16h-16z" fill="#826218"/><path d="m240 432h16v16h-16z" fill="#826218"/><path d="m256 432h16v16h-16z" fill="#b58922"/><path d="m272 432h16v16h-16z" fill="#b58922"/><path d="m288 432h16v16h-16z" fill="#b58922"/><path d="m304 432h16v16h-16z" fill="#826218"/><path d="m320 432h16v16h-16z" fill="#604912"/><path d="m336 432h16v16h-16z" fill="#c69625"/><path d="m352 432h16v16h-16z" fill="#826218"/><path d="m368 432h16v16h-16z" fill="#604912"/><path d="m192 448h16v16h-16z" fill="#604912"/><path d="m208 448h16v16h-16z" fill="#604912"/><path d="m224 448h16v16h-16z" fill="#604912"/><path d="m240 448h16v16h-16z" fill="#604912"/><path d="m256 448h16v16h-16z" fill="#826218"/><path d="m272 448h16v16h-16z" fill="#826218"/><path d="m288 448h16v16h-16z" fill="#826218"/><path d="m304 448h16v16h-16z" fill="#826218"/><path d="m320 448h16v16h-16z" fill="#604912"/><path d="m336 448h16v16h-16z" fill="#826218"/><path d="m352 448h16v16h-16z" fill="#604912"/><path d="m256 464h16v16h-16z" fill="#604912"/><path d="m272 464h16v16h-16z" fill="#604912"/><path d="m288 464h16v16h-16z" fill="#604912"/><path d="m304 464h16v16h-16z" fill="#604912"/><path d="m320 464h16v16h-16z" fill="#604912"/><path d="m336 464h16v16h-16z" fill="#604912"/></svg>
