<svg viewBox="0 0 512 512" xmlns="http://www.w3.org/2000/svg" version="1.1"><path d="m160 352h16v16h-16z" fill="#3270ff"/><path d="m176 352h16v16h-16z" fill="#3270ff"/><path d="m192 352h16v16h-16z" fill="#3270ff"/><path d="m208 352h16v16h-16z" fill="#3270ff"/><path d="m224 352h16v16h-16z" fill="#3270ff"/><path d="m240 352h16v16h-16z" fill="#3270ff"/><path d="m256 352h16v16h-16z" fill="#3270ff"/><path d="m272 352h16v16h-16z" fill="#3270ff"/><path d="m288 352h16v16h-16z" fill="#3270ff"/><path d="m304 352h16v16h-16z" fill="#3270ff"/><path d="m320 352h16v16h-16z" fill="#3270ff"/><path d="m336 352h16v16h-16z" fill="#3270ff"/><path d="m112 368h16v16h-16z" fill="#3270ff"/><path d="m128 368h16v16h-16z" fill="#3270ff"/><path d="m144 368h16v16h-16z" fill="#3270ff"/><path d="m160 368h16v16h-16z" fill="#d8e4ff"/><path d="m176 368h16v16h-16z" fill="#d8e4ff"/><path d="m192 368h16v16h-16z" fill="#d8e4ff"/><path d="m208 368h16v16h-16z" fill="#d8e4ff"/><path d="m224 368h16v16h-16z" fill="#d8e4ff"/><path d="m240 368h16v16h-16z" fill="#d8e4ff"/><path d="m256 368h16v16h-16z" fill="#d8e4ff"/><path d="m272 368h16v16h-16z" fill="#d8e4ff"/><path d="m288 368h16v16h-16z" fill="#d8e4ff"/><path d="m304 368h16v16h-16z" fill="#d8e4ff"/><path d="m320 368h16v16h-16z" fill="#d8e4ff"/><path d="m336 368h16v16h-16z" fill="#d8e4ff"/><path d="m352 368h16v16h-16z" fill="#3270ff"/><path d="m368 368h16v16h-16z" fill="#3270ff"/><path d="m384 368h16v16h-16z" fill="#3270ff"/><path d="m80 384h16v16h-16z" fill="#3270ff"/><path d="m96 384h16v16h-16z" fill="#3270ff"/><path d="m112 384h16v16h-16z" fill="#d8e4ff"/><path d="m128 384h16v16h-16z" fill="#d8e4ff"/><path d="m144 384h16v16h-16z" fill="#d8e4ff"/><path d="m160 384h16v16h-16z" fill="#8eb2ff"/><path d="m176 384h16v16h-16z" fill="#8eb2ff"/><path d="m192 384h16v16h-16z" fill="#8eb2ff"/><path d="m208 384h16v16h-16z" fill="#8eb2ff"/><path d="m224 384h16v16h-16z" fill="#8eb2ff"/><path d="m240 384h16v16h-16z" fill="#8eb2ff"/><path d="m256 384h16v16h-16z" fill="#8eb2ff"/><path d="m272 384h16v16h-16z" fill="#8eb2ff"/><path d="m288 384h16v16h-16z" fill="#8eb2ff"/><path d="m304 384h16v16h-16z" fill="#8eb2ff"/><path d="m320 384h16v16h-16z" fill="#8eb2ff"/><path d="m336 384h16v16h-16z" fill="#8eb2ff"/><path d="m352 384h16v16h-16z" fill="#d8e4ff"/><path d="m368 384h16v16h-16z" fill="#d8e4ff"/><path d="m384 384h16v16h-16z" fill="#d8e4ff"/><path d="m400 384h16v16h-16z" fill="#3270ff"/><path d="m416 384h16v16h-16z" fill="#3270ff"/><path d="m64 400h16v16h-16z" fill="#3270ff"/><path d="m80 400h16v16h-16z" fill="#d8e4ff"/><path d="m96 400h16v16h-16z" fill="#d8e4ff"/><path d="m112 400h16v16h-16z" fill="#8eb2ff"/><path d="m128 400h16v16h-16z" fill="#8eb2ff"/><path d="m144 400h16v16h-16z" fill="#8eb2ff"/><path d="m160 400h16v16h-16z" fill="#8eb2ff"/><path d="m176 400h16v16h-16z" fill="#8eb2ff"/><path d="m192 400h16v16h-16z" fill="#8eb2ff"/><path d="m208 400h16v16h-16z" fill="#8eb2ff"/><path d="m224 400h16v16h-16z" fill="#8eb2ff"/><path d="m240 400h16v16h-16z" fill="#8eb2ff"/><path d="m256 400h16v16h-16z" fill="#8eb2ff"/><path d="m272 400h16v16h-16z" fill="#8eb2ff"/><path d="m288 400h16v16h-16z" fill="#8eb2ff"/><path d="m304 400h16v16h-16z" fill="#8eb2ff"/><path d="m320 400h16v16h-16z" fill="#8eb2ff"/><path d="m336 400h16v16h-16z" fill="#8eb2ff"/><path d="m352 400h16v16h-16z" fill="#8eb2ff"/><path d="m368 400h16v16h-16z" fill="#8eb2ff"/><path d="m384 400h16v16h-16z" fill="#8eb2ff"/><path d="m400 400h16v16h-16z" fill="#d8e4ff"/><path d="m416 400h16v16h-16z" fill="#d8e4ff"/><path d="m432 400h16v16h-16z" fill="#3270ff"/><path d="m64 416h16v16h-16z" fill="#3270ff"/><path d="m80 416h16v16h-16z" fill="#d8e4ff"/><path d="m96 416h16v16h-16z" fill="#8eb2ff"/><path d="m112 416h16v16h-16z" fill="#8eb2ff"/><path d="m128 416h16v16h-16z" fill="#8eb2ff"/><path d="m144 416h16v16h-16z" fill="#8eb2ff"/><path d="m160 416h16v16h-16z" fill="#8eb2ff"/><path d="m176 416h16v16h-16z" fill="#8eb2ff"/><path d="m192 416h16v16h-16z" fill="#8eb2ff"/><path d="m208 416h16v16h-16z" fill="#8eb2ff"/><path d="m224 416h16v16h-16z" fill="#8eb2ff"/><path d="m240 416h16v16h-16z" fill="#8eb2ff"/><path d="m256 416h16v16h-16z" fill="#8eb2ff"/><path d="m272 416h16v16h-16z" fill="#8eb2ff"/><path d="m288 416h16v16h-16z" fill="#8eb2ff"/><path d="m304 416h16v16h-16z" fill="#8eb2ff"/><path d="m320 416h16v16h-16z" fill="#8eb2ff"/><path d="m336 416h16v16h-16z" fill="#8eb2ff"/><path d="m352 416h16v16h-16z" fill="#8eb2ff"/><path d="m368 416h16v16h-16z" fill="#8eb2ff"/><path d="m384 416h16v16h-16z" fill="#8eb2ff"/><path d="m400 416h16v16h-16z" fill="#8eb2ff"/><path d="m416 416h16v16h-16z" fill="#d8e4ff"/><path d="m432 416h16v16h-16z" fill="#3270ff"/><path d="m64 432h16v16h-16z" fill="#3270ff"/><path d="m80 432h16v16h-16z" fill="#d8e4ff"/><path d="m96 432h16v16h-16z" fill="#8eb2ff"/><path d="m112 432h16v16h-16z" fill="#8eb2ff"/><path d="m128 432h16v16h-16z" fill="#8eb2ff"/><path d="m144 432h16v16h-16z" fill="#8eb2ff"/><path d="m160 432h16v16h-16z" fill="#8eb2ff"/><path d="m176 432h16v16h-16z" fill="#8eb2ff"/><path d="m192 432h16v16h-16z" fill="#8eb2ff"/><path d="m208 432h16v16h-16z" fill="#8eb2ff"/><path d="m224 432h16v16h-16z" fill="#8eb2ff"/><path d="m240 432h16v16h-16z" fill="#8eb2ff"/><path d="m256 432h16v16h-16z" fill="#8eb2ff"/><path d="m272 432h16v16h-16z" fill="#8eb2ff"/><path d="m288 432h16v16h-16z" fill="#8eb2ff"/><path d="m304 432h16v16h-16z" fill="#8eb2ff"/><path d="m320 432h16v16h-16z" fill="#8eb2ff"/><path d="m336 432h16v16h-16z" fill="#8eb2ff"/><path d="m352 432h16v16h-16z" fill="#8eb2ff"/><path d="m368 432h16v16h-16z" fill="#8eb2ff"/><path d="m384 432h16v16h-16z" fill="#8eb2ff"/><path d="m400 432h16v16h-16z" fill="#8eb2ff"/><path d="m416 432h16v16h-16z" fill="#bacfff"/><path d="m432 432h16v16h-16z" fill="#3270ff"/><path d="m80 448h16v16h-16z" fill="#3270ff"/><path d="m96 448h16v16h-16z" fill="#bacfff"/><path d="m112 448h16v16h-16z" fill="#bacfff"/><path d="m128 448h16v16h-16z" fill="#bacfff"/><path d="m144 448h16v16h-16z" fill="#bacfff"/><path d="m160 448h16v16h-16z" fill="#8eb2ff"/><path d="m176 448h16v16h-16z" fill="#8eb2ff"/><path d="m192 448h16v16h-16z" fill="#8eb2ff"/><path d="m208 448h16v16h-16z" fill="#8eb2ff"/><path d="m224 448h16v16h-16z" fill="#8eb2ff"/><path d="m240 448h16v16h-16z" fill="#8eb2ff"/><path d="m256 448h16v16h-16z" fill="#8eb2ff"/><path d="m272 448h16v16h-16z" fill="#8eb2ff"/><path d="m288 448h16v16h-16z" fill="#8eb2ff"/><path d="m304 448h16v16h-16z" fill="#8eb2ff"/><path d="m320 448h16v16h-16z" fill="#8eb2ff"/><path d="m336 448h16v16h-16z" fill="#8eb2ff"/><path d="m352 448h16v16h-16z" fill="#bacfff"/><path d="m368 448h16v16h-16z" fill="#bacfff"/><path d="m384 448h16v16h-16z" fill="#bacfff"/><path d="m400 448h16v16h-16z" fill="#bacfff"/><path d="m416 448h16v16h-16z" fill="#3270ff"/><path d="m96 464h16v16h-16z" fill="#3270ff"/><path d="m112 464h16v16h-16z" fill="#3270ff"/><path d="m128 464h16v16h-16z" fill="#3270ff"/><path d="m144 464h16v16h-16z" fill="#3270ff"/><path d="m160 464h16v16h-16z" fill="#bacfff"/><path d="m176 464h16v16h-16z" fill="#bacfff"/><path d="m192 464h16v16h-16z" fill="#bacfff"/><path d="m208 464h16v16h-16z" fill="#bacfff"/><path d="m224 464h16v16h-16z" fill="#bacfff"/><path d="m240 464h16v16h-16z" fill="#bacfff"/><path d="m256 464h16v16h-16z" fill="#bacfff"/><path d="m272 464h16v16h-16z" fill="#bacfff"/><path d="m288 464h16v16h-16z" fill="#bacfff"/><path d="m304 464h16v16h-16z" fill="#bacfff"/><path d="m320 464h16v16h-16z" fill="#bacfff"/><path d="m336 464h16v16h-16z" fill="#bacfff"/><path d="m352 464h16v16h-16z" fill="#3270ff"/><path d="m368 464h16v16h-16z" fill="#3270ff"/><path d="m384 464h16v16h-16z" fill="#3270ff"/><path d="m400 464h16v16h-16z" fill="#3270ff"/><path d="m160 480h16v16h-16z" fill="#3270ff"/><path d="m176 480h16v16h-16z" fill="#3270ff"/><path d="m192 480h16v16h-16z" fill="#3270ff"/><path d="m208 480h16v16h-16z" fill="#3270ff"/><path d="m224 480h16v16h-16z" fill="#3270ff"/><path d="m240 480h16v16h-16z" fill="#3270ff"/><path d="m256 480h16v16h-16z" fill="#3270ff"/><path d="m272 480h16v16h-16z" fill="#3270ff"/><path d="m288 480h16v16h-16z" fill="#3270ff"/><path d="m304 480h16v16h-16z" fill="#3270ff"/><path d="m320 480h16v16h-16z" fill="#3270ff"/><path d="m336 480h16v16h-16z" fill="#3270ff"/></svg>
