<svg viewBox="0 0 512 512" xmlns="http://www.w3.org/2000/svg" version="1.1"><path d="m208 64h16v16h-16z" fill="#000000"/><path d="m224 64h16v16h-16z" fill="#000000"/><path d="m240 64h16v16h-16z" fill="#000000"/><path d="m256 64h16v16h-16z" fill="#000000"/><path d="m272 64h16v16h-16z" fill="#000000"/><path d="m288 64h16v16h-16z" fill="#000000"/><path d="m176 80h16v16h-16z" fill="#000000"/><path d="m192 80h16v16h-16z" fill="#000000"/><path d="m208 80h16v16h-16z" fill="#ad610f"/><path d="m224 80h16v16h-16z" fill="#ad610f"/><path d="m240 80h16v16h-16z" fill="#ad610f"/><path d="m256 80h16v16h-16z" fill="#ad610f"/><path d="m272 80h16v16h-16z" fill="#ad610f"/><path d="m288 80h16v16h-16z" fill="#ad610f"/><path d="m304 80h16v16h-16z" fill="#000000"/><path d="m320 80h16v16h-16z" fill="#000000"/><path d="m160 96h16v16h-16z" fill="#000000"/><path d="m176 96h16v16h-16z" fill="#ad610f"/><path d="m192 96h16v16h-16z" fill="#ad610f"/><path d="m208 96h16v16h-16z" fill="#ad610f"/><path d="m224 96h16v16h-16z" fill="#ad610f"/><path d="m240 96h16v16h-16z" fill="#ad610f"/><path d="m256 96h16v16h-16z" fill="#ad610f"/><path d="m272 96h16v16h-16z" fill="#ad610f"/><path d="m288 96h16v16h-16z" fill="#ad610f"/><path d="m304 96h16v16h-16z" fill="#ad610f"/><path d="m320 96h16v16h-16z" fill="#ad610f"/><path d="m336 96h16v16h-16z" fill="#000000"/><path d="m144 112h16v16h-16z" fill="#000000"/><path d="m160 112h16v16h-16z" fill="#c66f11"/><path d="m176 112h16v16h-16z" fill="#ad610f"/><path d="m192 112h16v16h-16z" fill="#ad610f"/><path d="m208 112h16v16h-16z" fill="#ad610f"/><path d="m224 112h16v16h-16z" fill="#ad610f"/><path d="m240 112h16v16h-16z" fill="#ad610f"/><path d="m256 112h16v16h-16z" fill="#ad610f"/><path d="m272 112h16v16h-16z" fill="#ad610f"/><path d="m288 112h16v16h-16z" fill="#ad610f"/><path d="m304 112h16v16h-16z" fill="#ad610f"/><path d="m320 112h16v16h-16z" fill="#ad610f"/><path d="m336 112h16v16h-16z" fill="#c66f11"/><path d="m352 112h16v16h-16z" fill="#000000"/><path d="m144 128h16v16h-16z" fill="#000000"/><path d="m160 128h16v16h-16z" fill="#c66f11"/><path d="m176 128h16v16h-16z" fill="#ad610f"/><path d="m192 128h16v16h-16z" fill="#ad610f"/><path d="m208 128h16v16h-16z" fill="#ad610f"/><path d="m224 128h16v16h-16z" fill="#ad610f"/><path d="m240 128h16v16h-16z" fill="#ad610f"/><path d="m256 128h16v16h-16z" fill="#ad610f"/><path d="m272 128h16v16h-16z" fill="#ad610f"/><path d="m288 128h16v16h-16z" fill="#ad610f"/><path d="m304 128h16v16h-16z" fill="#ad610f"/><path d="m320 128h16v16h-16z" fill="#ad610f"/><path d="m336 128h16v16h-16z" fill="#c66f11"/><path d="m352 128h16v16h-16z" fill="#000000"/><path d="m128 144h16v16h-16z" fill="#000000"/><path d="m144 144h16v16h-16z" fill="#ad610f"/><path d="m160 144h16v16h-16z" fill="#ad610f"/><path d="m176 144h16v16h-16z" fill="#c66f11"/><path d="m192 144h16v16h-16z" fill="#c66f11"/><path d="m208 144h16v16h-16z" fill="#c66f11"/><path d="m224 144h16v16h-16z" fill="#c66f11"/><path d="m240 144h16v16h-16z" fill="#ad610f"/><path d="m256 144h16v16h-16z" fill="#ad610f"/><path d="m272 144h16v16h-16z" fill="#ad610f"/><path d="m288 144h16v16h-16z" fill="#ad610f"/><path d="m304 144h16v16h-16z" fill="#c66f11"/><path d="m320 144h16v16h-16z" fill="#c66f11"/><path d="m336 144h16v16h-16z" fill="#ad610f"/><path d="m352 144h16v16h-16z" fill="#ad610f"/><path d="m368 144h16v16h-16z" fill="#000000"/><path d="m128 160h16v16h-16z" fill="#000000"/><path d="m144 160h16v16h-16z" fill="#ad610f"/><path d="m160 160h16v16h-16z" fill="#ad610f"/><path d="m176 160h16v16h-16z" fill="#ad610f"/><path d="m192 160h16v16h-16z" fill="#ad610f"/><path d="m208 160h16v16h-16z" fill="#ad610f"/><path d="m224 160h16v16h-16z" fill="#ad610f"/><path d="m240 160h16v16h-16z" fill="#ad610f"/><path d="m256 160h16v16h-16z" fill="#ad610f"/><path d="m272 160h16v16h-16z" fill="#c66f11"/><path d="m288 160h16v16h-16z" fill="#c66f11"/><path d="m304 160h16v16h-16z" fill="#633708"/><path d="m320 160h16v16h-16z" fill="#ad610f"/><path d="m336 160h16v16h-16z" fill="#ad610f"/><path d="m352 160h16v16h-16z" fill="#ad610f"/><path d="m368 160h16v16h-16z" fill="#000000"/><path d="m128 176h16v16h-16z" fill="#000000"/><path d="m144 176h16v16h-16z" fill="#ad610f"/><path d="m160 176h16v16h-16z" fill="#ad610f"/><path d="m176 176h16v16h-16z" fill="#ad610f"/><path d="m192 176h16v16h-16z" fill="#633708"/><path d="m208 176h16v16h-16z" fill="#ad610f"/><path d="m224 176h16v16h-16z" fill="#ad610f"/><path d="m240 176h16v16h-16z" fill="#ad610f"/><path d="m256 176h16v16h-16z" fill="#ad610f"/><path d="m272 176h16v16h-16z" fill="#ad610f"/><path d="m288 176h16v16h-16z" fill="#633708"/><path d="m304 176h16v16h-16z" fill="#e5c7bc"/><path d="m320 176h16v16h-16z" fill="#633708"/><path d="m336 176h16v16h-16z" fill="#ad610f"/><path d="m352 176h16v16h-16z" fill="#ad610f"/><path d="m368 176h16v16h-16z" fill="#000000"/><path d="m128 192h16v16h-16z" fill="#000000"/><path d="m144 192h16v16h-16z" fill="#ad610f"/><path d="m160 192h16v16h-16z" fill="#ad610f"/><path d="m176 192h16v16h-16z" fill="#633708"/><path d="m192 192h16v16h-16z" fill="#e5c7bc"/><path d="m208 192h16v16h-16z" fill="#633708"/><path d="m224 192h16v16h-16z" fill="#ad610f"/><path d="m240 192h16v16h-16z" fill="#ad610f"/><path d="m256 192h16v16h-16z" fill="#ad610f"/><path d="m272 192h16v16h-16z" fill="#633708"/><path d="m288 192h16v16h-16z" fill="#e5c7bc"/><path d="m304 192h16v16h-16z" fill="#e5c7bc"/><path d="m320 192h16v16h-16z" fill="#633708"/><path d="m336 192h16v16h-16z" fill="#ad610f"/><path d="m352 192h16v16h-16z" fill="#ad610f"/><path d="m368 192h16v16h-16z" fill="#000000"/><path d="m128 208h16v16h-16z" fill="#000000"/><path d="m144 208h16v16h-16z" fill="#ad610f"/><path d="m160 208h16v16h-16z" fill="#ad610f"/><path d="m176 208h16v16h-16z" fill="#633708"/><path d="m192 208h16v16h-16z" fill="#e5c7bc"/><path d="m208 208h16v16h-16z" fill="#e5c7bc"/><path d="m224 208h16v16h-16z" fill="#633708"/><path d="m240 208h16v16h-16z" fill="#633708"/><path d="m256 208h16v16h-16z" fill="#633708"/><path d="m272 208h16v16h-16z" fill="#e5c7bc"/><path d="m288 208h16v16h-16z" fill="#ffded1"/><path d="m304 208h16v16h-16z" fill="#e5c7bc"/><path d="m320 208h16v16h-16z" fill="#633708"/><path d="m336 208h16v16h-16z" fill="#ad610f"/><path d="m352 208h16v16h-16z" fill="#ad610f"/><path d="m368 208h16v16h-16z" fill="#000000"/><path d="m128 224h16v16h-16z" fill="#000000"/><path d="m144 224h16v16h-16z" fill="#ad610f"/><path d="m160 224h16v16h-16z" fill="#ad610f"/><path d="m176 224h16v16h-16z" fill="#633708"/><path d="m192 224h16v16h-16z" fill="#ffded1"/><path d="m208 224h16v16h-16z" fill="#00822b"/><path d="m224 224h16v16h-16z" fill="#ffded1"/><path d="m240 224h16v16h-16z" fill="#ffded1"/><path d="m256 224h16v16h-16z" fill="#ffded1"/><path d="m272 224h16v16h-16z" fill="#ffded1"/><path d="m288 224h16v16h-16z" fill="#00822b"/><path d="m304 224h16v16h-16z" fill="#ffded1"/><path d="m320 224h16v16h-16z" fill="#633708"/><path d="m336 224h16v16h-16z" fill="#ad610f"/><path d="m352 224h16v16h-16z" fill="#ad610f"/><path d="m368 224h16v16h-16z" fill="#000000"/><path d="m144 240h16v16h-16z" fill="#000000"/><path d="m160 240h16v16h-16z" fill="#e5c7bc"/><path d="m176 240h16v16h-16z" fill="#633708"/><path d="m192 240h16v16h-16z" fill="#ffded1"/><path d="m208 240h16v16h-16z" fill="#00822b"/><path d="m224 240h16v16h-16z" fill="#ffded1"/><path d="m240 240h16v16h-16z" fill="#ffded1"/><path d="m256 240h16v16h-16z" fill="#ffded1"/><path d="m272 240h16v16h-16z" fill="#ffded1"/><path d="m288 240h16v16h-16z" fill="#00822b"/><path d="m304 240h16v16h-16z" fill="#ffded1"/><path d="m320 240h16v16h-16z" fill="#633708"/><path d="m336 240h16v16h-16z" fill="#e5c7bc"/><path d="m352 240h16v16h-16z" fill="#000000"/><path d="m144 256h16v16h-16z" fill="#000000"/><path d="m160 256h16v16h-16z" fill="#ffded1"/><path d="m176 256h16v16h-16z" fill="#e5c7bc"/><path d="m192 256h16v16h-16z" fill="#ffded1"/><path d="m208 256h16v16h-16z" fill="#00a537"/><path d="m224 256h16v16h-16z" fill="#ffded1"/><path d="m240 256h16v16h-16z" fill="#ffded1"/><path d="m256 256h16v16h-16z" fill="#ffded1"/><path d="m272 256h16v16h-16z" fill="#ffded1"/><path d="m288 256h16v16h-16z" fill="#00a537"/><path d="m304 256h16v16h-16z" fill="#ffded1"/><path d="m320 256h16v16h-16z" fill="#e5c7bc"/><path d="m336 256h16v16h-16z" fill="#ffded1"/><path d="m352 256h16v16h-16z" fill="#000000"/><path d="m160 272h16v16h-16z" fill="#000000"/><path d="m176 272h16v16h-16z" fill="#ffded1"/><path d="m192 272h16v16h-16z" fill="#ffded1"/><path d="m208 272h16v16h-16z" fill="#ffded1"/><path d="m224 272h16v16h-16z" fill="#ffded1"/><path d="m240 272h16v16h-16z" fill="#ffded1"/><path d="m256 272h16v16h-16z" fill="#ffded1"/><path d="m272 272h16v16h-16z" fill="#ffded1"/><path d="m288 272h16v16h-16z" fill="#ffded1"/><path d="m304 272h16v16h-16z" fill="#ffded1"/><path d="m320 272h16v16h-16z" fill="#ffded1"/><path d="m336 272h16v16h-16z" fill="#000000"/><path d="m176 288h16v16h-16z" fill="#000000"/><path d="m192 288h16v16h-16z" fill="#000000"/><path d="m208 288h16v16h-16z" fill="#ffded1"/><path d="m224 288h16v16h-16z" fill="#ffded1"/><path d="m240 288h16v16h-16z" fill="#ffded1"/><path d="m256 288h16v16h-16z" fill="#ffded1"/><path d="m272 288h16v16h-16z" fill="#ffded1"/><path d="m288 288h16v16h-16z" fill="#ffded1"/><path d="m304 288h16v16h-16z" fill="#000000"/><path d="m320 288h16v16h-16z" fill="#000000"/><path d="m192 304h16v16h-16z" fill="#000000"/><path d="m208 304h16v16h-16z" fill="#051f91"/><path d="m224 304h16v16h-16z" fill="#051f91"/><path d="m240 304h16v16h-16z" fill="#ffded1"/><path d="m256 304h16v16h-16z" fill="#ffded1"/><path d="m272 304h16v16h-16z" fill="#051f91"/><path d="m288 304h16v16h-16z" fill="#051f91"/><path d="m304 304h16v16h-16z" fill="#000000"/><path d="m176 320h16v16h-16z" fill="#000000"/><path d="m192 320h16v16h-16z" fill="#051f91"/><path d="m208 320h16v16h-16z" fill="#051f91"/><path d="m224 320h16v16h-16z" fill="#051f91"/><path d="m240 320h16v16h-16z" fill="#31448e"/><path d="m256 320h16v16h-16z" fill="#31448e"/><path d="m272 320h16v16h-16z" fill="#051f91"/><path d="m288 320h16v16h-16z" fill="#051f91"/><path d="m304 320h16v16h-16z" fill="#051f91"/><path d="m320 320h16v16h-16z" fill="#000000"/><path d="m160 336h16v16h-16z" fill="#000000"/><path d="m176 336h16v16h-16z" fill="#051f91"/><path d="m192 336h16v16h-16z" fill="#31448e"/><path d="m208 336h16v16h-16z" fill="#31448e"/><path d="m224 336h16v16h-16z" fill="#31448e"/><path d="m240 336h16v16h-16z" fill="#31448e"/><path d="m256 336h16v16h-16z" fill="#31448e"/><path d="m272 336h16v16h-16z" fill="#31448e"/><path d="m288 336h16v16h-16z" fill="#31448e"/><path d="m304 336h16v16h-16z" fill="#31448e"/><path d="m320 336h16v16h-16z" fill="#051f91"/><path d="m336 336h16v16h-16z" fill="#000000"/><path d="m144 352h16v16h-16z" fill="#000000"/><path d="m160 352h16v16h-16z" fill="#051f91"/><path d="m176 352h16v16h-16z" fill="#31448e"/><path d="m192 352h16v16h-16z" fill="#31448e"/><path d="m208 352h16v16h-16z" fill="#051f91"/><path d="m224 352h16v16h-16z" fill="#051f91"/><path d="m240 352h16v16h-16z" fill="#31448e"/><path d="m256 352h16v16h-16z" fill="#31448e"/><path d="m272 352h16v16h-16z" fill="#051f91"/><path d="m288 352h16v16h-16z" fill="#051f91"/><path d="m304 352h16v16h-16z" fill="#31448e"/><path d="m320 352h16v16h-16z" fill="#31448e"/><path d="m336 352h16v16h-16z" fill="#051f91"/><path d="m352 352h16v16h-16z" fill="#000000"/><path d="m112 368h16v16h-16z" fill="#3270ff"/><path d="m128 368h16v16h-16z" fill="#000000"/><path d="m144 368h16v16h-16z" fill="#ffded1"/><path d="m160 368h16v16h-16z" fill="#051f91"/><path d="m176 368h16v16h-16z" fill="#051f91"/><path d="m192 368h16v16h-16z" fill="#051f91"/><path d="m208 368h16v16h-16z" fill="#051f91"/><path d="m224 368h16v16h-16z" fill="#051f91"/><path d="m240 368h16v16h-16z" fill="#31448e"/><path d="m256 368h16v16h-16z" fill="#31448e"/><path d="m272 368h16v16h-16z" fill="#051f91"/><path d="m288 368h16v16h-16z" fill="#051f91"/><path d="m304 368h16v16h-16z" fill="#051f91"/><path d="m320 368h16v16h-16z" fill="#051f91"/><path d="m336 368h16v16h-16z" fill="#051f91"/><path d="m352 368h16v16h-16z" fill="#ffded1"/><path d="m368 368h16v16h-16z" fill="#000000"/><path d="m384 368h16v16h-16z" fill="#3270ff"/><path d="m80 384h16v16h-16z" fill="#3270ff"/><path d="m96 384h16v16h-16z" fill="#3270ff"/><path d="m112 384h16v16h-16z" fill="#d8e4ff"/><path d="m128 384h16v16h-16z" fill="#000000"/><path d="m144 384h16v16h-16z" fill="#ffded1"/><path d="m160 384h16v16h-16z" fill="#ffded1"/><path d="m176 384h16v16h-16z" fill="#000000"/><path d="m192 384h16v16h-16z" fill="#051f91"/><path d="m208 384h16v16h-16z" fill="#051f91"/><path d="m224 384h16v16h-16z" fill="#051f91"/><path d="m240 384h16v16h-16z" fill="#31448e"/><path d="m256 384h16v16h-16z" fill="#31448e"/><path d="m272 384h16v16h-16z" fill="#051f91"/><path d="m288 384h16v16h-16z" fill="#051f91"/><path d="m304 384h16v16h-16z" fill="#051f91"/><path d="m320 384h16v16h-16z" fill="#000000"/><path d="m336 384h16v16h-16z" fill="#ffded1"/><path d="m352 384h16v16h-16z" fill="#ffded1"/><path d="m368 384h16v16h-16z" fill="#000000"/><path d="m384 384h16v16h-16z" fill="#d8e4ff"/><path d="m400 384h16v16h-16z" fill="#3270ff"/><path d="m416 384h16v16h-16z" fill="#3270ff"/><path d="m64 400h16v16h-16z" fill="#3270ff"/><path d="m80 400h16v16h-16z" fill="#d8e4ff"/><path d="m96 400h16v16h-16z" fill="#d8e4ff"/><path d="m112 400h16v16h-16z" fill="#8eb2ff"/><path d="m128 400h16v16h-16z" fill="#8eb2ff"/><path d="m144 400h16v16h-16z" fill="#000000"/><path d="m160 400h16v16h-16z" fill="#000000"/><path d="m176 400h16v16h-16z" fill="#000000"/><path d="m192 400h16v16h-16z" fill="#051f91"/><path d="m208 400h16v16h-16z" fill="#051f91"/><path d="m224 400h16v16h-16z" fill="#051f91"/><path d="m240 400h16v16h-16z" fill="#051f91"/><path d="m256 400h16v16h-16z" fill="#051f91"/><path d="m272 400h16v16h-16z" fill="#051f91"/><path d="m288 400h16v16h-16z" fill="#051f91"/><path d="m304 400h16v16h-16z" fill="#051f91"/><path d="m320 400h16v16h-16z" fill="#000000"/><path d="m336 400h16v16h-16z" fill="#000000"/><path d="m352 400h16v16h-16z" fill="#000000"/><path d="m368 400h16v16h-16z" fill="#8eb2ff"/><path d="m384 400h16v16h-16z" fill="#8eb2ff"/><path d="m400 400h16v16h-16z" fill="#d8e4ff"/><path d="m416 400h16v16h-16z" fill="#d8e4ff"/><path d="m432 400h16v16h-16z" fill="#3270ff"/><path d="m64 416h16v16h-16z" fill="#3270ff"/><path d="m80 416h16v16h-16z" fill="#d8e4ff"/><path d="m96 416h16v16h-16z" fill="#8eb2ff"/><path d="m112 416h16v16h-16z" fill="#8eb2ff"/><path d="m128 416h16v16h-16z" fill="#8eb2ff"/><path d="m144 416h16v16h-16z" fill="#8eb2ff"/><path d="m160 416h16v16h-16z" fill="#8eb2ff"/><path d="m176 416h16v16h-16z" fill="#000000"/><path d="m192 416h16v16h-16z" fill="#000000"/><path d="m208 416h16v16h-16z" fill="#000000"/><path d="m224 416h16v16h-16z" fill="#000000"/><path d="m240 416h16v16h-16z" fill="#000000"/><path d="m256 416h16v16h-16z" fill="#000000"/><path d="m272 416h16v16h-16z" fill="#000000"/><path d="m288 416h16v16h-16z" fill="#000000"/><path d="m304 416h16v16h-16z" fill="#000000"/><path d="m320 416h16v16h-16z" fill="#000000"/><path d="m336 416h16v16h-16z" fill="#8eb2ff"/><path d="m352 416h16v16h-16z" fill="#8eb2ff"/><path d="m368 416h16v16h-16z" fill="#8eb2ff"/><path d="m384 416h16v16h-16z" fill="#8eb2ff"/><path d="m400 416h16v16h-16z" fill="#8eb2ff"/><path d="m416 416h16v16h-16z" fill="#d8e4ff"/><path d="m432 416h16v16h-16z" fill="#3270ff"/><path d="m64 432h16v16h-16z" fill="#3270ff"/><path d="m80 432h16v16h-16z" fill="#d8e4ff"/><path d="m96 432h16v16h-16z" fill="#8eb2ff"/><path d="m112 432h16v16h-16z" fill="#8eb2ff"/><path d="m128 432h16v16h-16z" fill="#8eb2ff"/><path d="m144 432h16v16h-16z" fill="#8eb2ff"/><path d="m160 432h16v16h-16z" fill="#8eb2ff"/><path d="m176 432h16v16h-16z" fill="#000000"/><path d="m192 432h16v16h-16z" fill="#404040"/><path d="m208 432h16v16h-16z" fill="#404040"/><path d="m224 432h16v16h-16z" fill="#686868"/><path d="m240 432h16v16h-16z" fill="#686868"/><path d="m256 432h16v16h-16z" fill="#686868"/><path d="m272 432h16v16h-16z" fill="#686868"/><path d="m288 432h16v16h-16z" fill="#404040"/><path d="m304 432h16v16h-16z" fill="#404040"/><path d="m320 432h16v16h-16z" fill="#000000"/><path d="m336 432h16v16h-16z" fill="#8eb2ff"/><path d="m352 432h16v16h-16z" fill="#8eb2ff"/><path d="m368 432h16v16h-16z" fill="#8eb2ff"/><path d="m384 432h16v16h-16z" fill="#8eb2ff"/><path d="m400 432h16v16h-16z" fill="#8eb2ff"/><path d="m416 432h16v16h-16z" fill="#bacfff"/><path d="m432 432h16v16h-16z" fill="#3270ff"/><path d="m80 448h16v16h-16z" fill="#3270ff"/><path d="m96 448h16v16h-16z" fill="#bacfff"/><path d="m112 448h16v16h-16z" fill="#bacfff"/><path d="m128 448h16v16h-16z" fill="#bacfff"/><path d="m144 448h16v16h-16z" fill="#bacfff"/><path d="m160 448h16v16h-16z" fill="#8eb2ff"/><path d="m176 448h16v16h-16z" fill="#000000"/><path d="m192 448h16v16h-16z" fill="#404040"/><path d="m208 448h16v16h-16z" fill="#404040"/><path d="m224 448h16v16h-16z" fill="#404040"/><path d="m240 448h16v16h-16z" fill="#404040"/><path d="m256 448h16v16h-16z" fill="#404040"/><path d="m272 448h16v16h-16z" fill="#404040"/><path d="m288 448h16v16h-16z" fill="#404040"/><path d="m304 448h16v16h-16z" fill="#404040"/><path d="m320 448h16v16h-16z" fill="#000000"/><path d="m336 448h16v16h-16z" fill="#8eb2ff"/><path d="m352 448h16v16h-16z" fill="#bacfff"/><path d="m368 448h16v16h-16z" fill="#bacfff"/><path d="m384 448h16v16h-16z" fill="#bacfff"/><path d="m400 448h16v16h-16z" fill="#bacfff"/><path d="m416 448h16v16h-16z" fill="#3270ff"/><path d="m96 464h16v16h-16z" fill="#3270ff"/><path d="m112 464h16v16h-16z" fill="#3270ff"/><path d="m128 464h16v16h-16z" fill="#3270ff"/><path d="m144 464h16v16h-16z" fill="#3270ff"/><path d="m160 464h16v16h-16z" fill="#bacfff"/><path d="m176 464h16v16h-16z" fill="#bacfff"/><path d="m192 464h16v16h-16z" fill="#000000"/><path d="m208 464h16v16h-16z" fill="#404040"/><path d="m224 464h16v16h-16z" fill="#000000"/><path d="m240 464h16v16h-16z" fill="#000000"/><path d="m256 464h16v16h-16z" fill="#000000"/><path d="m272 464h16v16h-16z" fill="#000000"/><path d="m288 464h16v16h-16z" fill="#404040"/><path d="m304 464h16v16h-16z" fill="#000000"/><path d="m320 464h16v16h-16z" fill="#bacfff"/><path d="m336 464h16v16h-16z" fill="#bacfff"/><path d="m352 464h16v16h-16z" fill="#3270ff"/><path d="m368 464h16v16h-16z" fill="#3270ff"/><path d="m384 464h16v16h-16z" fill="#3270ff"/><path d="m400 464h16v16h-16z" fill="#3270ff"/><path d="m160 480h16v16h-16z" fill="#3270ff"/><path d="m176 480h16v16h-16z" fill="#3270ff"/><path d="m192 480h16v16h-16z" fill="#000000"/><path d="m208 480h16v16h-16z" fill="#686868"/><path d="m224 480h16v16h-16z" fill="#000000"/><path d="m240 480h16v16h-16z" fill="#ffffff"/><path d="m256 480h16v16h-16z" fill="#ffffff"/><path d="m272 480h16v16h-16z" fill="#000000"/><path d="m288 480h16v16h-16z" fill="#686868"/><path d="m304 480h16v16h-16z" fill="#000000"/><path d="m320 480h16v16h-16z" fill="#3270ff"/><path d="m336 480h16v16h-16z" fill="#3270ff"/><path d="m192 496h16v16h-16z" fill="#000000"/><path d="m208 496h16v16h-16z" fill="#000000"/><path d="m224 496h16v16h-16z" fill="#000000"/><path d="m240 496h16v16h-16z" fill="#ffffff"/><path d="m256 496h16v16h-16z" fill="#ffffff"/><path d="m272 496h16v16h-16z" fill="#000000"/><path d="m288 496h16v16h-16z" fill="#000000"/><path d="m304 496h16v16h-16z" fill="#000000"/></svg>
