<svg viewBox="0 0 512 512" xmlns="http://www.w3.org/2000/svg" version="1.1"><path d="m0 0h16v16h-16z" fill="#efefef"/><path d="m16 0h16v16h-16z" fill="#efefef"/><path d="m48 0h16v16h-16z" fill="#efefef"/><path d="m64 0h16v16h-16z" fill="#efefef"/><path d="m96 0h16v16h-16z" fill="#efefef"/><path d="m112 0h16v16h-16z" fill="#efefef"/><path d="m144 0h16v16h-16z" fill="#efefef"/><path d="m160 0h16v16h-16z" fill="#efefef"/><path d="m192 0h16v16h-16z" fill="#efefef"/><path d="m208 0h16v16h-16z" fill="#efefef"/><path d="m240 0h16v16h-16z" fill="#efefef"/><path d="m256 0h16v16h-16z" fill="#efefef"/><path d="m288 0h16v16h-16z" fill="#efefef"/><path d="m304 0h16v16h-16z" fill="#efefef"/><path d="m336 0h16v16h-16z" fill="#efefef"/><path d="m352 0h16v16h-16z" fill="#efefef"/><path d="m384 0h16v16h-16z" fill="#efefef"/><path d="m400 0h16v16h-16z" fill="#efefef"/><path d="m432 0h16v16h-16z" fill="#efefef"/><path d="m448 0h16v16h-16z" fill="#efefef"/><path d="m480 0h16v16h-16z" fill="#efefef"/><path d="m496 0h16v16h-16z" fill="#efefef"/><path d="m0 16h16v16h-16z" fill="#efefef"/><path d="m496 16h16v16h-16z" fill="#efefef"/><path d="m0 48h16v16h-16z" fill="#efefef"/><path d="m496 48h16v16h-16z" fill="#efefef"/><path d="m0 64h16v16h-16z" fill="#efefef"/><path d="m496 64h16v16h-16z" fill="#efefef"/><path d="m0 96h16v16h-16z" fill="#efefef"/><path d="m496 96h16v16h-16z" fill="#efefef"/><path d="m0 112h16v16h-16z" fill="#efefef"/><path d="m496 112h16v16h-16z" fill="#efefef"/><path d="m0 144h16v16h-16z" fill="#efefef"/><path d="m496 144h16v16h-16z" fill="#efefef"/><path d="m0 160h16v16h-16z" fill="#efefef"/><path d="m496 160h16v16h-16z" fill="#efefef"/><path d="m0 192h16v16h-16z" fill="#efefef"/><path d="m496 192h16v16h-16z" fill="#efefef"/><path d="m0 208h16v16h-16z" fill="#efefef"/><path d="m496 208h16v16h-16z" fill="#efefef"/><path d="m0 240h16v16h-16z" fill="#efefef"/><path d="m496 240h16v16h-16z" fill="#efefef"/><path d="m0 256h16v16h-16z" fill="#efefef"/><path d="m496 256h16v16h-16z" fill="#efefef"/><path d="m0 288h16v16h-16z" fill="#efefef"/><path d="m496 288h16v16h-16z" fill="#efefef"/><path d="m0 304h16v16h-16z" fill="#efefef"/><path d="m496 304h16v16h-16z" fill="#efefef"/><path d="m0 336h16v16h-16z" fill="#efefef"/><path d="m496 336h16v16h-16z" fill="#efefef"/><path d="m0 352h16v16h-16z" fill="#efefef"/><path d="m496 352h16v16h-16z" fill="#efefef"/><path d="m0 384h16v16h-16z" fill="#efefef"/><path d="m496 384h16v16h-16z" fill="#efefef"/><path d="m0 400h16v16h-16z" fill="#efefef"/><path d="m496 400h16v16h-16z" fill="#efefef"/><path d="m0 432h16v16h-16z" fill="#efefef"/><path d="m496 432h16v16h-16z" fill="#efefef"/><path d="m0 448h16v16h-16z" fill="#efefef"/><path d="m496 448h16v16h-16z" fill="#efefef"/><path d="m0 480h16v16h-16z" fill="#efefef"/><path d="m496 480h16v16h-16z" fill="#efefef"/><path d="m0 496h16v16h-16z" fill="#efefef"/><path d="m16 496h16v16h-16z" fill="#efefef"/><path d="m48 496h16v16h-16z" fill="#efefef"/><path d="m64 496h16v16h-16z" fill="#efefef"/><path d="m96 496h16v16h-16z" fill="#efefef"/><path d="m112 496h16v16h-16z" fill="#efefef"/><path d="m144 496h16v16h-16z" fill="#efefef"/><path d="m160 496h16v16h-16z" fill="#efefef"/><path d="m192 496h16v16h-16z" fill="#efefef"/><path d="m208 496h16v16h-16z" fill="#efefef"/><path d="m240 496h16v16h-16z" fill="#efefef"/><path d="m256 496h16v16h-16z" fill="#efefef"/><path d="m288 496h16v16h-16z" fill="#efefef"/><path d="m304 496h16v16h-16z" fill="#efefef"/><path d="m336 496h16v16h-16z" fill="#efefef"/><path d="m352 496h16v16h-16z" fill="#efefef"/><path d="m384 496h16v16h-16z" fill="#efefef"/><path d="m400 496h16v16h-16z" fill="#efefef"/><path d="m432 496h16v16h-16z" fill="#efefef"/><path d="m448 496h16v16h-16z" fill="#efefef"/><path d="m480 496h16v16h-16z" fill="#efefef"/><path d="m496 496h16v16h-16z" fill="#efefef"/></svg>
